<svg version="1.1" id="Layer_1" xmlns="http://www.w3.org/2000/svg" xmlns:xlink="http://www.w3.org/1999/xlink" x="0px" y="0px"
	 width="100%" viewBox="0 0 265 138" enable-background="new 0 0 265 138" xml:space="preserve">
<path fill="#FEFEFE" opacity="1.000000" stroke="none" 
	d="
M194.000000,139.000000 
	C129.333344,139.000000 65.166672,139.000000 1.000009,139.000000 
	C1.000006,93.000008 1.000006,47.000011 1.000003,1.000015 
	C89.333321,1.000010 177.666641,1.000010 266.000000,1.000005 
	C266.000000,46.999985 266.000000,92.999969 266.000000,138.999969 
	C242.166672,139.000000 218.333328,139.000000 194.000000,139.000000 
M59.077900,49.010029 
	C58.110630,49.010029 57.143364,49.010029 56.165043,49.010029 
	C54.192730,39.847023 58.210960,29.936090 52.966228,20.123331 
	C51.280178,22.396818 50.231434,23.810953 49.209137,25.189425 
	C50.583782,27.361986 51.795567,29.277151 52.920105,31.054432 
	C51.576252,33.039242 50.462822,34.683731 49.611786,35.940678 
	C50.578209,38.627026 52.808296,42.219296 52.023254,43.088547 
	C48.341995,47.164726 50.098896,50.206955 53.342682,53.648426 
	C49.439430,56.755371 48.648552,60.085735 52.254623,63.722530 
	C52.623741,64.094795 52.573864,65.573532 52.182915,65.902580 
	C47.790924,69.599144 50.630508,72.839195 52.846390,75.842506 
	C52.014641,77.467789 51.341854,78.782455 50.320297,80.778641 
	C55.028709,79.388298 55.714272,76.470680 55.716663,73.136475 
	C55.722198,65.418816 55.718422,57.701153 55.718422,49.294350 
	C57.314297,50.282486 58.097473,50.767410 59.187431,51.822746 
	C66.423409,59.182331 74.326904,66.012512 80.703941,74.053307 
	C86.840782,81.791237 94.176605,80.545357 102.435104,79.282951 
	C95.310165,71.502014 87.153038,64.783936 80.390961,56.873352 
	C74.645569,50.152142 68.367493,47.591026 59.077900,49.010029 
M173.659607,43.999943 
	C171.006561,44.394257 169.828751,43.592567 169.929749,40.578545 
	C170.155502,33.840275 170.000351,27.089245 170.000351,20.546902 
	C165.154449,20.546902 161.093262,20.546902 157.152695,20.546902 
	C157.152695,40.652096 157.152695,60.369072 157.152695,79.934448 
	C161.612015,79.934448 165.679489,79.934448 170.122650,79.934448 
	C170.122650,72.173546 170.122650,64.754341 170.122650,56.822906 
	C175.897675,56.822906 181.284454,56.822906 186.674103,56.822906 
	C186.674103,52.359169 186.674103,48.425835 186.674103,44.000053 
	C182.522308,44.000053 178.572357,44.000053 173.659607,43.999943 
M194.420883,51.499855 
	C194.420883,60.939674 194.420883,70.379494 194.420883,80.079483 
	C199.168182,80.079483 203.418625,80.079483 207.622421,80.079483 
	C207.622421,60.047096 207.622421,40.193569 207.622421,20.403528 
	C203.131683,20.403528 199.037888,20.403528 194.421112,20.403528 
	C194.421112,30.605768 194.421112,40.552807 194.420883,51.499855 
M73.680710,32.258240 
	C78.664932,32.320911 83.675095,32.091236 88.625885,32.530586 
	C93.333298,32.948345 96.262726,36.530872 96.062126,40.954559 
	C95.853401,45.557175 93.352188,48.269600 88.800339,49.074429 
	C87.795113,49.252171 86.796387,49.466663 85.794662,49.664234 
	C85.541786,50.095108 85.288910,50.525982 85.036034,50.956860 
	C86.866920,52.387547 88.845779,53.666409 90.499886,55.278492 
	C94.789497,59.459133 96.145805,59.635254 100.879539,55.765511 
	C107.750954,50.148243 108.833977,42.656910 107.255211,34.547234 
	C105.761948,26.876797 100.583229,22.465334 93.323929,20.537455 
	C90.824898,19.873777 88.051414,20.167038 85.402794,20.156870 
	C76.041718,20.120922 66.680420,20.142872 57.319202,20.142872 
	C56.982220,20.708040 56.645237,21.273211 56.308254,21.838379 
	C58.705231,23.836710 61.312363,25.635700 63.445396,27.884396 
	C66.045380,30.625359 68.522217,33.168766 73.680710,32.258240 
M133.273300,27.369726 
	C124.679131,37.543213 116.431908,48.041267 107.345390,57.754154 
	C102.756851,62.659008 102.620514,67.038895 105.356567,72.468002 
	C108.878593,72.468002 112.438667,72.468002 116.605621,72.468002 
	C114.452675,64.392281 120.243866,60.176270 124.006386,54.809158 
	C128.665039,48.163742 133.748474,43.248817 142.660187,45.308811 
	C143.240143,45.442871 143.933075,45.088150 144.552933,44.964867 
	C144.552933,38.772053 144.552933,32.718151 144.552933,26.126282 
	C140.736298,26.392464 137.305801,26.631716 133.273300,27.369726 
M152.016388,62.310493 
	C149.757141,62.066422 147.497894,61.822346 145.190796,61.573105 
	C144.982651,59.046661 144.797470,56.798981 144.602798,54.436123 
	C140.608810,54.436123 137.009872,54.436123 133.170837,54.436123 
	C132.936340,56.898853 132.722504,59.144684 132.485840,61.630238 
	C129.907013,61.858135 127.532211,62.068008 125.395172,62.256866 
	C125.395172,66.022316 125.395172,69.253433 125.395172,72.535950 
	C128.075394,72.766441 130.315536,72.959084 132.614014,73.156746 
	C132.778595,75.733315 132.914062,77.854042 133.058289,80.111893 
	C137.062866,80.111893 140.817642,80.111893 144.675293,80.111893 
	C144.873795,77.542191 145.047775,75.289917 145.217377,73.094254 
	C147.892441,72.847687 150.131104,72.641342 152.495224,72.423431 
	C152.495224,69.005096 152.495224,66.026970 152.016388,62.310493 
M30.949257,63.384258 
	C29.950905,61.916359 28.952555,60.448456 28.006357,59.057240 
	C29.395943,56.986908 30.590929,55.206505 31.756968,53.469231 
	C30.451092,51.438103 29.225861,49.532410 28.074560,47.741707 
	C29.438189,45.662846 30.590769,43.905724 31.717047,42.188702 
	C30.374361,40.106464 29.223253,38.321320 28.072403,36.536579 
	C29.400562,34.465954 30.625036,32.556976 31.746103,30.809210 
	C30.349237,28.707340 29.177174,26.943731 28.112049,25.341036 
	C29.082191,23.549765 29.875738,22.084558 30.669285,20.619352 
	C26.476948,21.280437 24.075291,23.173424 24.090279,27.360518 
	C24.145565,42.803852 23.987698,58.249577 24.245087,73.688820 
	C24.284121,76.030220 26.097822,78.342026 27.554680,81.754387 
	C29.673012,78.928955 30.730072,77.519051 31.775208,76.125046 
	C30.418882,73.956360 29.220251,72.039810 28.303993,70.574760 
	C29.458939,68.033920 30.376820,66.014618 30.949257,63.384258 
M38.535263,39.137825 
	C38.510464,37.431290 38.296047,35.699623 38.517868,34.025768 
	C38.712894,32.554066 40.224861,30.369600 39.727493,29.839516 
	C36.816677,26.737217 36.914875,23.724621 38.890244,19.837091 
	C36.340889,20.715750 34.122841,21.862139 32.881256,23.676668 
	C32.244621,24.607086 33.482281,26.718931 33.637249,28.319666 
	C33.801613,30.017492 34.327419,32.147774 33.555416,33.367920 
	C32.111603,35.649849 31.491575,37.441086 33.602360,39.474461 
	C35.568775,41.368767 35.156902,43.049911 33.541382,45.062435 
	C30.091467,49.360134 38.388630,55.077839 32.053555,59.275654 
	C31.993103,59.315712 33.433365,61.087166 33.612850,62.145317 
	C33.895638,63.812485 33.829285,65.572128 33.673367,67.270844 
	C33.525787,68.878716 32.677338,70.500755 32.841892,72.041283 
	C33.123703,74.679443 33.955200,77.258888 34.797955,80.912453 
	C35.912270,80.144539 38.221889,79.257362 39.258583,77.582344 
	C39.912510,76.525764 38.650578,74.293915 38.271675,72.584007 
	C38.013187,71.417519 37.207970,69.555420 37.650501,69.176704 
	C42.081177,65.385017 39.038921,62.194122 36.843735,59.097546 
	C38.180168,57.052055 39.347363,55.265591 40.641617,53.284660 
	C37.956551,50.163082 35.484665,46.994411 39.760506,43.201889 
	C40.185585,42.824863 39.270222,40.936569 38.535263,39.137825 
M46.183212,71.180794 
	C47.099167,68.966644 48.015121,66.752502 48.989437,64.397278 
	C45.757423,59.053452 45.757423,59.053452 49.506382,53.127640 
	C44.941071,49.726318 45.802845,45.841080 49.704159,41.874668 
	C45.820026,38.770813 45.044350,35.575378 48.625767,32.086838 
	C49.028488,31.694557 49.093586,30.215998 48.733273,29.895531 
	C45.468182,26.991531 46.142200,23.764469 48.336109,20.143835 
	C46.552521,20.222109 44.990150,19.814323 44.351788,20.405050 
	C42.144398,22.447716 39.736225,24.144762 42.147041,28.220621 
	C44.865723,32.816975 39.888561,38.648415 43.373257,43.596127 
	C40.358177,46.413521 42.476578,48.944458 42.866829,52.083004 
	C43.411716,56.465233 41.037388,61.301079 43.553635,65.903297 
	C39.058834,69.487648 41.727051,72.792717 44.168079,75.854584 
	C43.289978,77.376152 42.579308,78.607597 41.868637,79.839043 
	C42.229507,80.304489 42.590378,80.769936 42.951248,81.235382 
	C44.697544,80.079788 47.298691,79.268570 47.943043,77.669060 
	C48.553551,76.153564 47.112488,73.811600 46.183212,71.180794 
M156.723358,102.949532 
	C155.953461,101.555885 155.183563,100.162239 153.902496,97.843292 
	C157.702759,97.843292 160.005280,97.718689 162.289215,97.871696 
	C165.965149,98.117958 166.492401,96.362015 165.537430,93.240166 
	C160.142776,93.240166 154.894577,93.240166 149.471939,93.240166 
	C149.471939,101.567619 149.471939,109.620682 149.471939,117.750076 
	C155.071945,117.750076 160.332870,117.750076 166.356644,117.750076 
	C165.064224,109.704758 158.122437,115.347435 155.165421,112.329254 
	C155.165421,111.103256 155.165421,109.695229 155.165421,108.330040 
	C163.953506,107.138268 163.953506,107.138268 163.490738,102.965729 
	C161.579147,102.965729 159.612656,102.965729 156.723358,102.949532 
M191.350723,98.984688 
	C190.675354,103.606140 192.850571,106.269920 197.185043,107.400772 
	C198.303391,107.692558 199.610245,107.571030 200.563171,108.111076 
	C201.812820,108.819275 202.797440,109.995102 203.896057,110.969810 
	C202.574478,111.692451 201.226212,113.050598 199.937256,112.996475 
	C197.717941,112.903290 195.535568,111.930656 192.931473,111.215569 
	C192.227524,112.094109 191.337723,113.204620 190.301086,114.498383 
	C195.167496,118.342476 200.331497,119.423676 205.409698,116.691681 
	C207.436600,115.601227 209.325043,112.327087 209.350540,110.025681 
	C209.372650,108.027763 207.010269,105.547752 205.079376,104.125954 
	C203.492523,102.957497 200.920044,103.219093 198.930359,102.462883 
	C198.089386,102.143265 197.079269,100.795242 197.143875,99.995239 
	C197.204285,99.247192 198.501785,98.201920 199.404922,98.015816 
	C200.637634,97.761818 202.181442,97.855164 203.294312,98.403519 
	C206.435684,99.951416 207.504410,98.409630 208.112305,95.735191 
	C201.129242,91.015289 195.111252,91.961830 191.350723,98.984688 
M186.862045,106.804756 
	C183.953384,105.502052 180.963882,104.347786 178.173309,102.828217 
	C176.948425,102.161232 176.129089,100.749496 175.125610,99.675926 
	C176.348572,99.076263 177.525787,98.325356 178.812439,97.936234 
	C179.532684,97.718407 180.566376,97.869720 181.231735,98.251015 
	C184.455994,100.098717 185.666580,98.473145 186.507034,95.238007 
	C184.547516,94.489410 182.776016,93.521133 180.886642,93.145027 
	C175.008942,91.974976 170.399628,94.524406 169.501495,99.205078 
	C168.603729,103.883705 171.387756,106.781471 177.944244,107.981613 
	C178.268890,108.041031 178.701218,107.908562 178.921066,108.077141 
	C179.994522,108.900261 181.012817,109.795334 182.050613,110.664955 
	C180.828629,111.489647 179.701370,112.677124 178.355789,113.028465 
	C177.203690,113.329269 175.573227,113.027771 174.552261,112.372574 
	C171.368484,110.329399 169.830032,111.546829 168.480118,115.787537 
	C172.335358,116.560722 175.935028,117.900826 179.521149,117.865471 
	C185.821747,117.803360 188.508881,113.758179 186.862045,106.804756 
z"/>
<path fill="#673434" opacity="1.000000" stroke="none" 
	d="
M174.141006,44.000000 
	C178.572357,44.000053 182.522308,44.000053 186.674103,44.000053 
	C186.674103,48.425835 186.674103,52.359169 186.674103,56.822906 
	C181.284454,56.822906 175.897675,56.822906 170.122650,56.822906 
	C170.122650,64.754341 170.122650,72.173546 170.122650,79.934448 
	C165.679489,79.934448 161.612015,79.934448 157.152695,79.934448 
	C157.152695,60.369072 157.152695,40.652096 157.152695,20.546902 
	C161.093262,20.546902 165.154449,20.546902 170.000351,20.546902 
	C170.000351,27.089245 170.155502,33.840275 169.929749,40.578545 
	C169.828751,43.592567 171.006561,44.394257 174.141006,44.000000 
z"/>
<path fill="#6C3B3B" opacity="1.000000" stroke="none" 
	d="
M194.420990,50.999851 
	C194.421112,40.552807 194.421112,30.605768 194.421112,20.403528 
	C199.037888,20.403528 203.131683,20.403528 207.622421,20.403528 
	C207.622421,40.193569 207.622421,60.047096 207.622421,80.079483 
	C203.418625,80.079483 199.168182,80.079483 194.420883,80.079483 
	C194.420883,70.379494 194.420883,60.939674 194.420990,50.999851 
z"/>
<path fill="#6B3A3A" opacity="1.000000" stroke="none" 
	d="
M73.213364,32.258221 
	C68.522217,33.168766 66.045380,30.625359 63.445396,27.884396 
	C61.312363,25.635700 58.705231,23.836710 56.308254,21.838379 
	C56.645237,21.273211 56.982220,20.708040 57.319202,20.142872 
	C66.680420,20.142872 76.041718,20.120922 85.402794,20.156870 
	C88.051414,20.167038 90.824898,19.873777 93.323929,20.537455 
	C100.583229,22.465334 105.761948,26.876797 107.255211,34.547234 
	C108.833977,42.656910 107.750954,50.148243 100.879539,55.765511 
	C96.145805,59.635254 94.789497,59.459133 90.499886,55.278492 
	C88.845779,53.666409 86.866920,52.387547 85.036034,50.956860 
	C85.288910,50.525982 85.541786,50.095108 85.794662,49.664234 
	C86.796387,49.466663 87.795113,49.252171 88.800339,49.074429 
	C93.352188,48.269600 95.853401,45.557175 96.062126,40.954559 
	C96.262726,36.530872 93.333298,32.948345 88.625885,32.530586 
	C83.675095,32.091236 78.664932,32.320911 73.213364,32.258221 
z"/>
<path fill="#6B3A3A" opacity="1.000000" stroke="none" 
	d="
M133.574310,27.120346 
	C137.305801,26.631716 140.736298,26.392464 144.552933,26.126282 
	C144.552933,32.718151 144.552933,38.772053 144.552933,44.964867 
	C143.933075,45.088150 143.240143,45.442871 142.660187,45.308811 
	C133.748474,43.248817 128.665039,48.163742 124.006386,54.809158 
	C120.243866,60.176270 114.452675,64.392281 116.605621,72.468002 
	C112.438667,72.468002 108.878593,72.468002 105.356567,72.468002 
	C102.620514,67.038895 102.756851,62.659008 107.345390,57.754154 
	C116.431908,48.041267 124.679131,37.543213 133.574310,27.120346 
z"/>
<path fill="#6C3B3B" opacity="1.000000" stroke="none" 
	d="
M59.994911,49.211739 
	C68.367493,47.591026 74.645569,50.152142 80.390961,56.873352 
	C87.153038,64.783936 95.310165,71.502014 102.435104,79.282951 
	C94.176605,80.545357 86.840782,81.791237 80.703941,74.053307 
	C74.326904,66.012512 66.423409,59.182331 59.142921,51.266598 
	C59.397243,50.210876 59.696075,49.711308 59.994911,49.211739 
z"/>
<path fill="#FB7C31" opacity="1.000000" stroke="none" 
	d="
M152.255798,62.679665 
	C152.495224,66.026970 152.495224,69.005096 152.495224,72.423431 
	C150.131104,72.641342 147.892441,72.847687 145.217377,73.094254 
	C145.047775,75.289917 144.873795,77.542191 144.675293,80.111893 
	C140.817642,80.111893 137.062866,80.111893 133.058289,80.111893 
	C132.914062,77.854042 132.778595,75.733315 132.614014,73.156746 
	C130.315536,72.959084 128.075394,72.766441 125.395172,72.535950 
	C125.395172,69.253433 125.395172,66.022316 125.395172,62.256866 
	C127.532211,62.068008 129.907013,61.858135 132.485840,61.630238 
	C132.722504,59.144684 132.936340,56.898853 133.170837,54.436123 
	C137.009872,54.436123 140.608810,54.436123 144.602798,54.436123 
	C144.797470,56.798981 144.982651,59.046661 145.190796,61.573105 
	C147.497894,61.822346 149.757141,62.066422 152.255798,62.679665 
z"/>
<path fill="#724343" opacity="1.000000" stroke="none" 
	d="
M31.121979,63.689781 
	C30.376820,66.014618 29.458939,68.033920 28.303993,70.574760 
	C29.220251,72.039810 30.418882,73.956360 31.775208,76.125046 
	C30.730072,77.519051 29.673012,78.928955 27.554680,81.754387 
	C26.097822,78.342026 24.284121,76.030220 24.245087,73.688820 
	C23.987698,58.249577 24.145565,42.803852 24.090279,27.360518 
	C24.075291,23.173424 26.476948,21.280437 30.669285,20.619352 
	C29.875738,22.084558 29.082191,23.549765 28.112049,25.341036 
	C29.177174,26.943731 30.349237,28.707340 31.746103,30.809210 
	C30.625036,32.556976 29.400562,34.465954 28.072403,36.536579 
	C29.223253,38.321320 30.374361,40.106464 31.717047,42.188702 
	C30.590769,43.905724 29.438189,45.662846 28.074560,47.741707 
	C29.225861,49.532410 30.451092,51.438103 31.756968,53.469231 
	C30.590929,55.206505 29.395943,56.986908 28.006357,59.057240 
	C28.952555,60.448456 29.950905,61.916359 31.121979,63.689781 
z"/>
<path fill="#724242" opacity="1.000000" stroke="none" 
	d="
M38.756126,39.443756 
	C39.270222,40.936569 40.185585,42.824863 39.760506,43.201889 
	C35.484665,46.994411 37.956551,50.163082 40.641617,53.284660 
	C39.347363,55.265591 38.180168,57.052055 36.843735,59.097546 
	C39.038921,62.194122 42.081177,65.385017 37.650501,69.176704 
	C37.207970,69.555420 38.013187,71.417519 38.271675,72.584007 
	C38.650578,74.293915 39.912510,76.525764 39.258583,77.582344 
	C38.221889,79.257362 35.912270,80.144539 34.797955,80.912453 
	C33.955200,77.258888 33.123703,74.679443 32.841892,72.041283 
	C32.677338,70.500755 33.525787,68.878716 33.673367,67.270844 
	C33.829285,65.572128 33.895638,63.812485 33.612850,62.145317 
	C33.433365,61.087166 31.993103,59.315712 32.053555,59.275654 
	C38.388630,55.077839 30.091467,49.360134 33.541382,45.062435 
	C35.156902,43.049911 35.568775,41.368767 33.602360,39.474461 
	C31.491575,37.441086 32.111603,35.649849 33.555416,33.367920 
	C34.327419,32.147774 33.801613,30.017492 33.637249,28.319666 
	C33.482281,26.718931 32.244621,24.607086 32.881256,23.676668 
	C34.122841,21.862139 36.340889,20.715750 38.890244,19.837091 
	C36.914875,23.724621 36.816677,26.737217 39.727493,29.839516 
	C40.224861,30.369600 38.712894,32.554066 38.517868,34.025768 
	C38.296047,35.699623 38.510464,37.431290 38.756126,39.443756 
z"/>
<path fill="#714242" opacity="1.000000" stroke="none" 
	d="
M46.378441,71.506943 
	C47.112488,73.811600 48.553551,76.153564 47.943043,77.669060 
	C47.298691,79.268570 44.697544,80.079788 42.951248,81.235382 
	C42.590378,80.769936 42.229507,80.304489 41.868637,79.839043 
	C42.579308,78.607597 43.289978,77.376152 44.168079,75.854584 
	C41.727051,72.792717 39.058834,69.487648 43.553635,65.903297 
	C41.037388,61.301079 43.411716,56.465233 42.866829,52.083004 
	C42.476578,48.944458 40.358177,46.413521 43.373257,43.596127 
	C39.888561,38.648415 44.865723,32.816975 42.147041,28.220621 
	C39.736225,24.144762 42.144398,22.447716 44.351788,20.405050 
	C44.990150,19.814323 46.552521,20.222109 48.336109,20.143835 
	C46.142200,23.764469 45.468182,26.991531 48.733273,29.895531 
	C49.093586,30.215998 49.028488,31.694557 48.625767,32.086838 
	C45.044350,35.575378 45.820026,38.770813 49.704159,41.874668 
	C45.802845,45.841080 44.941071,49.726318 49.506382,53.127640 
	C45.757423,59.053452 45.757423,59.053452 48.989437,64.397278 
	C48.015121,66.752502 47.099167,68.966644 46.378441,71.506943 
z"/>
<path fill="#7A4D4D" opacity="1.000000" stroke="none" 
	d="
M59.536404,49.110886 
	C59.696075,49.711308 59.397243,50.210876 58.989532,50.981392 
	C58.097473,50.767410 57.314297,50.282486 55.718422,49.294350 
	C55.718422,57.701153 55.722198,65.418816 55.716663,73.136475 
	C55.714272,76.470680 55.028709,79.388298 50.320297,80.778641 
	C51.341854,78.782455 52.014641,77.467789 52.846390,75.842506 
	C50.630508,72.839195 47.790924,69.599144 52.182915,65.902580 
	C52.573864,65.573532 52.623741,64.094795 52.254623,63.722530 
	C48.648552,60.085735 49.439430,56.755371 53.342682,53.648426 
	C50.098896,50.206955 48.341995,47.164726 52.023254,43.088547 
	C52.808296,42.219296 50.578209,38.627026 49.611786,35.940678 
	C50.462822,34.683731 51.576252,33.039242 52.920105,31.054432 
	C51.795567,29.277151 50.583782,27.361986 49.209137,25.189425 
	C50.231434,23.810953 51.280178,22.396818 52.966228,20.123331 
	C58.210960,29.936090 54.192730,39.847023 56.165043,49.010029 
	C57.143364,49.010029 58.110630,49.010029 59.536404,49.110886 
z"/>
<path fill="#2AB4A6" opacity="1.000000" stroke="none" 
	d="
M157.184753,102.957626 
	C159.612656,102.965729 161.579147,102.965729 163.490738,102.965729 
	C163.953506,107.138268 163.953506,107.138268 155.165421,108.330040 
	C155.165421,109.695229 155.165421,111.103256 155.165421,112.329254 
	C158.122437,115.347435 165.064224,109.704758 166.356644,117.750076 
	C160.332870,117.750076 155.071945,117.750076 149.471939,117.750076 
	C149.471939,109.620682 149.471939,101.567619 149.471939,93.240166 
	C154.894577,93.240166 160.142776,93.240166 165.537430,93.240166 
	C166.492401,96.362015 165.965149,98.117958 162.289215,97.871696 
	C160.005280,97.718689 157.702759,97.843292 153.902496,97.843292 
	C155.183563,100.162239 155.953461,101.555885 157.184753,102.957626 
z"/>
<path fill="#28B3A5" opacity="1.000000" stroke="none" 
	d="
M191.481293,98.623215 
	C195.111252,91.961830 201.129242,91.015289 208.112305,95.735191 
	C207.504410,98.409630 206.435684,99.951416 203.294312,98.403519 
	C202.181442,97.855164 200.637634,97.761818 199.404922,98.015816 
	C198.501785,98.201920 197.204285,99.247192 197.143875,99.995239 
	C197.079269,100.795242 198.089386,102.143265 198.930359,102.462883 
	C200.920044,103.219093 203.492523,102.957497 205.079376,104.125954 
	C207.010269,105.547752 209.372650,108.027763 209.350540,110.025681 
	C209.325043,112.327087 207.436600,115.601227 205.409698,116.691681 
	C200.331497,119.423676 195.167496,118.342476 190.301086,114.498383 
	C191.337723,113.204620 192.227524,112.094109 192.931473,111.215569 
	C195.535568,111.930656 197.717941,112.903290 199.937256,112.996475 
	C201.226212,113.050598 202.574478,111.692451 203.896057,110.969803 
	C202.797440,109.995102 201.812820,108.819275 200.563171,108.111076 
	C199.610245,107.571030 198.303391,107.692558 197.185043,107.400772 
	C192.850571,106.269920 190.675354,103.606140 191.481293,98.623215 
z"/>
<path fill="#27B2A4" opacity="1.000000" stroke="none" 
	d="
M187.013306,107.159393 
	C188.508881,113.758179 185.821747,117.803360 179.521149,117.865471 
	C175.935028,117.900826 172.335358,116.560722 168.480118,115.787537 
	C169.830032,111.546829 171.368484,110.329399 174.552261,112.372574 
	C175.573227,113.027771 177.203690,113.329269 178.355789,113.028465 
	C179.701370,112.677124 180.828629,111.489647 182.050613,110.664955 
	C181.012817,109.795334 179.994522,108.900261 178.921066,108.077141 
	C178.701218,107.908562 178.268890,108.041031 177.944244,107.981613 
	C171.387756,106.781471 168.603729,103.883705 169.501495,99.205078 
	C170.399628,94.524406 175.008942,91.974976 180.886642,93.145027 
	C182.776016,93.521133 184.547516,94.489410 186.507034,95.238007 
	C185.666580,98.473145 184.455994,100.098717 181.231735,98.251015 
	C180.566376,97.869720 179.532684,97.718407 178.812439,97.936234 
	C177.525787,98.325356 176.348572,99.076263 175.125610,99.675934 
	C176.129089,100.749496 176.948425,102.161232 178.173309,102.828217 
	C180.963882,104.347786 183.953384,105.502052 187.013306,107.159393 
z"/>
</svg>